<?xml version="1.0" encoding="UTF-8"?>
<svg version="1.1" xmlns="http://www.w3.org/2000/svg" width="128" height="128">
<path d="M0 0 C1.48209961 0.58104492 1.48209961 0.58104492 2.99414062 1.17382812 C3.94095703 1.56376953 4.88777344 1.95371094 5.86328125 2.35546875 C6.71833252 2.70633545 7.57338379 3.05720215 8.4543457 3.41870117 C11.24039066 5.15758066 12.32279165 6.85055162 13.6875 9.8125 C12.875 12.125 12.875 12.125 11.6875 13.8125 C5.6875 13.8125 5.6875 13.8125 -11.3125 6.8125 C-11.3125 27.2725 -11.3125 47.7325 -11.3125 68.8125 C-8.0125 69.8025 -4.7125 70.7925 -1.3125 71.8125 C0.63060197 72.53112593 2.5635144 73.2790361 4.4765625 74.07421875 C5.43691406 74.47060547 6.39726563 74.86699219 7.38671875 75.27539062 C8.35222656 75.67951172 9.31773438 76.08363281 10.3125 76.5 C11.31667969 76.91572266 12.32085937 77.33144531 13.35546875 77.75976562 C15.80130576 78.77304096 18.2452285 79.79066796 20.6875 80.8125 C20.68527939 80.26348526 20.68305878 79.71447052 20.68077087 79.14881897 C20.65871642 73.45542041 20.64359274 67.7620339 20.63256836 62.06860352 C20.62752702 59.94131986 20.62069409 57.81403969 20.61206055 55.68676758 C20.59998621 52.63622174 20.59426986 49.58572155 20.58984375 46.53515625 C20.58468246 45.57787125 20.57952118 44.62058624 20.57420349 43.6342926 C20.57412796 42.75345505 20.57405243 41.87261749 20.57397461 40.96508789 C20.571754 40.18565323 20.56953339 39.40621857 20.56724548 38.60316467 C20.6875 36.8125 20.6875 36.8125 21.6875 35.8125 C24.6875 35.6875 24.6875 35.6875 27.6875 35.8125 C28.6875 36.8125 28.6875 36.8125 28.80775452 38.60316467 C28.80553391 39.38259933 28.80331329 40.162034 28.80102539 40.96508789 C28.80091209 42.28634422 28.80091209 42.28634422 28.80079651 43.6342926 C28.79563522 44.59157761 28.79047394 45.54886261 28.78515625 46.53515625 C28.7837413 47.51036728 28.78232635 48.48557831 28.78086853 49.49034119 C28.77525133 52.61859143 28.76269593 55.74677123 28.75 58.875 C28.74498722 60.99023334 28.74042393 63.10546781 28.73632812 65.22070312 C28.72612531 70.41801801 28.70655331 75.61517975 28.6875 80.8125 C38.5875 76.8525 48.4875 72.8925 58.6875 68.8125 C58.76097656 64.00945312 58.76097656 64.00945312 58.8359375 59.109375 C58.88994698 56.00825322 58.94725465 52.90720873 59.00488281 49.80615234 C59.04316602 47.65093747 59.07802004 45.49565884 59.109375 43.34033203 C59.1550395 40.24228124 59.21303212 37.14466909 59.2734375 34.046875 C59.28498871 33.08320007 59.29653992 32.11952515 59.30844116 31.12664795 C59.32831085 30.22601624 59.34818054 29.32538452 59.36865234 28.39746094 C59.38197601 27.60692322 59.39529968 26.8163855 59.4090271 26.00189209 C59.71732363 23.57802254 60.48121286 21.92142723 61.6875 19.8125 C63.68704746 19.76995644 65.68791636 19.77169217 67.6875 19.8125 C68.6875 20.8125 68.6875 20.8125 68.80775452 22.98280334 C68.80553391 23.93988693 68.80331329 24.89697052 68.80102539 25.88305664 C68.80094986 26.96410172 68.80087433 28.04514679 68.80079651 29.15895081 C68.79563522 30.3349736 68.79047394 31.5109964 68.78515625 32.72265625 C68.78303383 34.51841347 68.78303383 34.51841347 68.78086853 36.35044861 C68.77524979 40.19199066 68.76269411 44.03347543 68.75 47.875 C68.74498741 50.47200437 68.74042409 53.06900965 68.73632812 55.66601562 C68.72527427 62.04819679 68.70851792 68.4303443 68.6875 74.8125 C61.09787005 78.67851383 53.45186864 82.129736 45.55517578 85.31665039 C43.55342586 86.12868102 41.56022286 86.95972943 39.56640625 87.79101562 C38.27131528 88.31629399 36.97575758 88.8404234 35.6796875 89.36328125 C34.52839355 89.83419189 33.37709961 90.30510254 32.19091797 90.7902832 C24.63949082 92.99361599 19.50672691 91.79001654 12.6015625 88.64453125 C11.07851377 87.99193048 9.55506349 87.3402662 8.03125 86.68945312 C5.66721273 85.66083184 3.30823908 84.62308806 0.95605469 83.56762695 C-8.94312966 78.62641313 -8.94312966 78.62641313 -19.55859375 78.53125 C-21.16499374 79.24453955 -22.74874761 80.0100155 -24.3125 80.8125 C-26.52127672 81.72070741 -28.73382264 82.61977965 -30.94921875 83.51171875 C-34.50199582 85.00939976 -38.04807597 86.52075353 -41.58789062 88.04882812 C-43.31362305 88.77295898 -43.31362305 88.77295898 -45.07421875 89.51171875 C-46.10506592 89.95346436 -47.13591309 90.39520996 -48.19799805 90.8503418 C-51.72876082 91.9410948 -54.63712018 92.05149161 -58.3125 91.8125 C-60.00918207 90.11581793 -59.43218993 88.00117982 -59.43692017 85.73809814 C-59.43332489 85.01233582 -59.42972961 84.28657349 -59.42602539 83.53881836 C-59.42617142 82.77789383 -59.42631744 82.0169693 -59.4264679 81.23298645 C-59.42576862 78.70607702 -59.41797555 76.17924038 -59.41015625 73.65234375 C-59.40829212 71.9049941 -59.4068682 70.15764393 -59.40586853 68.41029358 C-59.40204293 63.80218066 -59.39221229 59.19409905 -59.38116455 54.58599854 C-59.37095134 49.88741479 -59.3663711 45.18882601 -59.36132812 40.49023438 C-59.35059005 31.26430913 -59.33351313 22.03840716 -59.3125 12.8125 C-51.72287005 8.94648617 -44.07686864 5.495264 -36.18017578 2.30834961 C-34.17842586 1.49631898 -32.18522286 0.66527057 -30.19140625 -0.16601562 C-18.25598883 -5.05804009 -11.89914604 -4.99558294 0 0 Z M-27.59765625 9.18359375 C-28.21394394 9.42537857 -28.83023163 9.66716339 -29.4651947 9.91627502 C-30.76789042 10.42829623 -32.0699227 10.94200811 -33.37133789 11.45727539 C-35.36884233 12.24756379 -37.36879499 13.03138829 -39.36914062 13.81445312 C-40.63296379 14.31211597 -41.89664076 14.81015027 -43.16015625 15.30859375 C-44.31523682 15.76419678 -45.47031738 16.2197998 -46.66040039 16.68920898 C-49.19010535 17.56499368 -49.19010535 17.56499368 -50.3125 18.8125 C-50.40646057 20.74556498 -50.42993517 22.68208838 -50.42602539 24.61743164 C-50.42594986 25.85864273 -50.42587433 27.09985382 -50.42579651 28.37867737 C-50.42068911 29.7433374 -50.4154731 31.10799702 -50.41015625 32.47265625 C-50.408292 33.86128183 -50.40686813 35.24990807 -50.40586853 36.63853455 C-50.40204387 40.29971115 -50.39221403 43.9608483 -50.38116455 47.62200928 C-50.37094932 51.35542263 -50.36637067 55.08884234 -50.36132812 58.82226562 C-50.35059171 66.15236177 -50.33351591 73.48242536 -50.3125 80.8125 C-47.95745868 79.939804 -45.60349992 79.06433685 -43.25 78.1875 C-42.29383789 77.83365234 -42.29383789 77.83365234 -41.31835938 77.47265625 C-33.92637879 74.71392665 -26.64604796 71.74591918 -19.3125 68.8125 C-19.3125 48.3525 -19.3125 27.8925 -19.3125 6.8125 C-22.35680705 6.8125 -24.7721913 8.07297792 -27.59765625 9.18359375 Z " fill="#2F99B3" transform="translate(59.3125,36.1875)"/>
<path d="M0 0 C5.99360621 3.57194714 11.56017127 9.16824903 14 15.83203125 C16.49193925 28.18048023 13.465973 37.4913603 6.875 47.75 C1.5978187 55.40240979 -3.98189899 63.41939899 -10.5625 70 C-13.85553656 70.39107587 -15.77307899 70.56952217 -18.51171875 68.59375 C-30.85067759 53.73154339 -43.42357408 38.21213008 -41.5625 18 C-39.44261892 10.64975813 -34.93674773 5.15759757 -28.5625 1 C-19.9277143 -3.38444913 -8.95639301 -4.06609253 0 0 Z M-30.5625 15.6875 C-33.17860037 20.46433856 -33.62223747 24.67810674 -32.5625 30 C-30.00251533 37.17194148 -25.76952555 43.41901734 -21.4375 49.625 C-21.01807129 50.22924805 -20.59864258 50.83349609 -20.16650391 51.45605469 C-17.95339043 54.51230062 -16.17658471 56.71758284 -12.5625 58 C1.00137017 42.13942131 1.00137017 42.13942131 5.80859375 22.5625 C5.05710122 17.37324633 2.48229473 13.94090216 -1.25390625 10.39453125 C-6.08406899 6.79459785 -10.72442656 6.23900152 -16.66015625 6.5234375 C-22.89564972 7.54730049 -26.88869279 10.64241099 -30.5625 15.6875 Z " fill="#3097B0" transform="translate(113.5625,2)"/>
<path d="M0 0 C3.12578143 1.6720747 5.39281175 3.7856235 7 7 C7.51512617 11.09157355 7.94367269 15.23589546 5.953125 18.95703125 C3.55501226 21.85592636 1.60351712 23.79811835 -2.171875 24.2734375 C-9.98876369 24.58137554 -9.98876369 24.58137554 -13.5625 21.625 C-17.3057723 17.59378368 -17.39037018 14.90519941 -17.359375 9.55078125 C-16.78039966 5.44131496 -15.00085071 3.78650423 -12 1 C-8.27533151 -0.86233425 -4.05504687 -0.57130829 0 0 Z M-7 9 C-7.33 10.65 -7.66 12.3 -8 14 C-5.525 14.495 -5.525 14.495 -3 15 C-2.67 13.35 -2.34 11.7 -2 10 C-3.65 9.67 -5.3 9.34 -7 9 Z " fill="#3096B0" transform="translate(105,16)"/>
</svg>
